<?xml version="1.0" encoding="UTF-8"?>
<!DOCTYPE svg PUBLIC "-//W3C//DTD SVG 1.1//EN" "http://www.w3.org/Graphics/SVG/1.1/DTD/svg11.dtd">
<!-- Creator: CorelDRAW X7 -->
<svg xmlns="http://www.w3.org/2000/svg" xml:space="preserve" width="25.4mm" height="25.4mm" version="1.1" style="shape-rendering:geometricPrecision; text-rendering:geometricPrecision; image-rendering:optimizeQuality; fill-rule:evenodd; clip-rule:evenodd"
viewBox="0 0 2540 2540"
 xmlns:xlink="http://www.w3.org/1999/xlink">
 <defs>
  <style type="text/css">
   <![CDATA[
    .fil6 {fill:none}
    .fil8 {fill:#FEFEFE}
    .fil1 {fill:#6C2B1E}
    .fil0 {fill:#7B3928}
    .fil5 {fill:#81C341}
    .fil2 {fill:#8F4B36}
    .fil3 {fill:#F1827B}
    .fil4 {fill:#FACBC0}
    .fil7 {fill:#E6E7E6;fill-rule:nonzero}
    .fil10 {fill:#FEFEFE;fill-opacity:0.309804}
    .fil11 {fill:#FEFEFE;fill-opacity:0.400000}
    .fil12 {fill:#FEFEFE;fill-opacity:0.439216}
    .fil9 {fill:#FEFEFE;fill-opacity:0.458824}
   ]]>
  </style>
   <mask id="id0">
  <linearGradient id="id1" gradientUnits="userSpaceOnUse" x1="817.63" y1="1189.51" x2="835.83" y2="1262.67">
   <stop offset="0" style="stop-opacity:0.709804; stop-color:white"/>
   <stop offset="0.65098" style="stop-opacity:0.643137; stop-color:white"/>
   <stop offset="1" style="stop-opacity:0; stop-color:white"/>
  </linearGradient>
    <rect style="fill:url(#id1)" x="793" y="1195" width="66.93" height="61.68"/>
   </mask>
 </defs>
 <g id="Camada_x0020_1">
  <metadata id="CorelCorpID_0Corel-Layer"/>
  <path class="fil0" d="M2177 1755c55,-25 231,8 229,-2 -2,-14 -59,-70 -74,-182 -5,-38 60,-102 69,-160 -41,-37 -234,0 -238,0 -50,-2 -171,-24 -197,26 -57,110 84,182 121,236 6,9 81,86 90,82z"/>
  <path class="fil0" d="M575 1785c-48,0 -104,6 -150,0 -20,-2 -55,-3 -71,1 -74,19 -178,2 -189,-6 -4,-106 120,-125 26,-255 -4,-7 -50,-121 -37,-99 6,11 165,15 192,10 33,-7 76,-4 108,-18 29,-12 56,13 70,34 4,6 32,27 33,31 23,5 73,102 73,141 0,26 0,95 -14,115 -4,5 -20,46 -41,46z"/>
  <path class="fil1" d="M501 1440c24,22 92,72 90,106 0,0 -40,-3 -43,-3 -140,-6 -219,-29 -221,-29 48,-14 142,-39 173,-73l1 -1z"/>
  <path class="fil2" d="M583 1578c6,-71 -88,-136 -116,-149 -62,-31 99,-203 3,-321 -24,-30 -32,-122 47,-184 191,-149 -60,-248 250,-332 88,-24 67,-125 135,-166 75,-46 189,41 301,-58 126,-111 219,64 273,58 186,-19 181,-47 281,118 76,126 245,27 236,231 -3,73 42,117 42,125 130,113 108,124 53,264 -28,71 79,233 27,269 -17,12 -92,79 -92,79 -1,4 -92,50 -97,120 -8,0 -111,147 -143,179 -147,147 -89,164 -238,140 -104,-17 -204,121 -295,83 -155,-65 -109,-76 -235,-33 -31,11 -132,-5 -153,-82 -1,0 -218,-231 -220,-257 -18,-8 -31,-50 -45,-51 -3,-11 -15,-26 -14,-33z"/>
  <path class="fil3" d="M657 1567c-12,-9 -45,-94 -114,-153 -62,-53 63,-183 15,-264 -94,-159 86,-235 94,-282 9,-49 7,-175 71,-188 10,-22 106,-1 159,-94 40,-73 57,-108 178,-87 165,30 159,-141 280,-59 118,80 123,62 211,57 201,-11 48,135 291,191 140,31 17,177 147,271 137,99 -60,188 49,372 41,69 -154,223 -142,169 10,-48 -104,87 -133,91 -130,14 49,-270 44,-379 -38,-780 -1160,-667 -1028,129 0,1 38,233 65,295 11,25 -125,-46 -125,-45 -38,0 -46,-11 -62,-24z"/>
  <path class="fil4" d="M948 1566c-148,24 -183,-246 -183,-401 0,-122 47,-249 153,-345 32,-29 9,-54 42,-79 27,-21 79,-13 113,-23 73,-23 136,-48 218,-48 285,0 516,231 516,516 0,72 2,243 -65,254l-794 126z"/>
  <path class="fil2" d="M761 1028c-10,21 -13,39 -5,63 8,26 8,29 35,24 37,-6 66,-19 66,-60 0,-46 -80,-58 -96,-27z"/>
  <path class="fil3" d="M1095 1003c120,-37 296,-89 458,-11 145,69 169,313 133,431 -25,82 -123,125 -202,141 -57,12 -453,25 -487,1 -28,-20 -46,-7 -34,-67 -58,-176 -116,-418 132,-495z"/>
  <path class="fil5" d="M1188 816c6,4 31,22 32,21 24,-25 23,-84 66,-90 64,-7 61,64 89,104 4,5 178,-88 178,0 0,32 -19,69 -31,95 -3,9 -78,-13 -91,-17 -109,-32 -180,0 -199,0 -58,-2 -147,52 -190,22 -60,-41 -72,-116 -61,-173 7,-38 96,-38 207,38z"/>
  <path class="fil2" d="M835 1694c-67,-31 -181,-243 -181,-243 -342,-1220 1613,-1257 1256,54 -17,63 -20,90 -100,123 -153,64 -301,79 -478,92 -131,10 -216,-44 -351,-50 -22,-1 -128,32 -146,24zm-142 -420c0,-1 27,-95 111,-91 152,9 37,220 108,297 -1,-1 65,49 106,4 139,-149 172,133 261,-20 57,-98 51,-86 74,-103 32,-24 105,1 110,29 32,175 130,49 144,0 37,-134 95,-11 117,0 17,8 39,-10 36,-36 -8,-64 23,-150 62,-144 12,1 48,17 45,1 -3,-20 -19,-36 -12,-45 10,-15 44,-21 19,-36 -21,-12 -42,-39 -33,-51 52,-73 -28,-58 -25,-94 9,-111 -58,-61 -49,-94 12,-48 -17,-70 -30,-71 -91,-9 -13,-92 -67,-82 -86,15 -31,-63 -101,-49 -72,14 -38,-80 -94,-55 -80,35 -52,-48 -86,-23 -83,60 -81,-54 -116,-10 -51,65 -81,-42 -112,8 -58,93 -104,-7 -113,29 -23,90 -94,8 -98,54 -7,91 -87,23 -88,63 -2,104 -72,16 -70,84 2,104 -72,47 -61,93 20,85 -53,76 -33,114 29,57 -50,83 -19,113 58,56 -41,20 14,115z"/>
  <path class="fil2" d="M330 1514c-7,47 -4,412 3,411 129,-5 340,31 490,31 121,0 259,-14 377,-28 302,-37 655,-99 1008,-31 3,1 -2,-410 -20,-411 -280,-15 -387,-4 -713,28 -853,84 -1145,-1 -1145,0z"/>
  <path class="fil1" d="M2058 1481l64 -55c4,-3 39,38 64,60 5,4 -55,-7 -128,-5z"/>
  <path class="fil6" d="M306 1794c236,26 223,19 495,27 368,10 994,-58 1319,-47"/>
  <path class="fil7" d="M603 1737c-3,68 -49,99 -136,94 -7,0 -15,-1 -23,-2 -2,6 -6,9 -11,9 -3,0 -5,-1 -7,-3 -2,-2 -3,-4 -3,-6 0,1 2,-7 5,-26 4,-18 6,-37 7,-57 2,-29 2,-56 0,-83 -7,-1 -10,-5 -10,-11 1,-5 3,-8 8,-10l0 -2c0,0 0,0 0,0 0,-1 0,-1 0,-1 0,-6 4,-9 11,-9 6,0 10,3 10,9 16,-3 30,-3 43,-3 35,2 63,12 81,30 18,17 27,41 25,71zm-23 0c1,-24 -5,-43 -20,-56 -14,-14 -36,-21 -65,-23 -10,-1 -23,0 -39,2 3,29 3,58 1,87 -1,21 -3,41 -7,61 3,0 8,1 14,1 33,2 57,0 74,-7 26,-10 40,-31 42,-65z"/>
  <path id="1" class="fil7" d="M729 1726c-1,7 -3,13 -9,16 -2,2 -10,4 -22,6 -17,3 -31,4 -43,4 -5,0 -11,-1 -19,-2 -1,28 9,42 30,43 6,0 11,-2 16,-5 3,-1 7,-5 13,-11 2,-2 5,-4 7,-3 3,0 6,1 8,3 2,3 3,5 3,9 0,3 -1,5 -3,7 -13,14 -28,20 -45,20 -35,-1 -52,-22 -51,-62 1,-21 7,-39 18,-54 13,-17 29,-25 48,-24 14,0 26,5 35,15 10,10 14,23 14,38zm-22 0c0,-10 -3,-18 -8,-24 -4,-6 -10,-9 -18,-9 -9,-1 -18,3 -25,9 -8,7 -13,16 -17,29 5,0 10,1 16,1 14,0 32,-2 52,-6z"/>
  <path id="2" class="fil7" d="M775 1818c-1,5 -1,9 -2,10 -1,4 -4,5 -8,5 -7,0 -11,-6 -12,-17 -2,-19 -2,-45 -1,-78 0,-37 1,-60 2,-68 2,-9 6,-14 12,-14 7,0 11,5 10,14 0,2 0,11 -1,26 -1,15 -2,29 -2,42 -1,11 0,26 1,44 0,17 1,30 1,36z"/>
  <path id="3" class="fil7" d="M865 1800c0,9 -11,14 -33,13 -9,0 -16,-1 -19,-1 -8,-2 -13,-5 -13,-10 1,-9 9,-12 24,-12 0,-21 0,-35 1,-42 0,-11 1,-24 2,-40 -8,0 -12,-4 -12,-10 0,-7 9,-11 25,-10 14,0 21,4 20,11 0,6 -4,9 -12,10 -1,18 -2,31 -2,40 -1,14 0,28 1,41 12,1 18,4 18,10zm1 -172c0,4 -6,11 -16,20 -9,9 -15,14 -19,13 -2,0 -3,0 -4,-1 -2,-2 -2,-3 -2,-4 0,-2 3,-5 8,-10 0,0 6,-6 16,-17 5,-5 8,-7 11,-7 4,0 6,2 6,6z"/>
  <path id="4" class="fil7" d="M1006 1777c0,7 -8,17 -23,29 -11,9 -25,13 -43,13 -17,0 -31,-6 -41,-17 -11,-12 -16,-28 -16,-49 0,-26 6,-47 17,-62 12,-15 28,-22 49,-22 16,0 28,3 38,10 9,6 14,14 14,23 0,7 -3,11 -10,11 -4,0 -6,-1 -7,-3 -2,-4 -4,-8 -6,-12 -6,-6 -15,-9 -29,-9 -14,0 -25,5 -33,16 -8,11 -11,27 -11,46 0,32 13,48 38,48 14,0 27,-5 37,-16 0,0 2,-3 7,-10 2,-4 5,-6 9,-6 2,0 5,1 7,3 2,2 3,4 3,7z"/>
  <path id="5" class="fil7" d="M1053 1653c1,10 -4,15 -14,16 -5,0 -8,-2 -11,-4 -3,-3 -4,-7 -4,-11 -1,-4 1,-8 4,-11 3,-3 7,-5 11,-5 4,0 8,1 10,4 3,3 4,6 4,11zm-3 41c1,45 0,77 -2,98 -1,9 -2,14 -4,17 -2,4 -5,6 -9,6 -3,1 -5,0 -8,-2 -2,-2 -3,-4 -3,-7 0,0 1,-2 2,-8 1,-6 2,-13 2,-21 1,-11 2,-23 1,-37 0,-6 0,-12 -1,-19 0,-7 0,-10 0,-11 0,-10 0,-16 2,-20 1,-5 5,-7 9,-7 7,0 10,4 11,11z"/>
  <path id="6" class="fil7" d="M1179 1746c1,20 -1,41 -6,64 -2,11 -6,16 -12,17 -6,0 -9,-3 -9,-10 -1,-1 -1,-3 0,-3 -8,4 -15,6 -23,7 -14,1 -26,-3 -34,-10 -8,-8 -13,-19 -13,-33 -1,-15 3,-27 11,-36 8,-8 19,-13 33,-14 12,-1 23,3 32,11 -3,-29 -14,-43 -34,-42 -5,0 -9,2 -14,5 -5,3 -9,4 -10,4 -3,0 -5,0 -7,-2 -2,-2 -3,-5 -3,-7 -1,-5 2,-9 9,-13 6,-4 14,-7 24,-7 35,-2 53,21 56,69zm-21 27c-1,-19 -10,-27 -28,-27 -19,1 -28,11 -27,30 1,18 11,27 30,26 8,0 14,-3 19,-8 4,-5 6,-12 6,-21z"/>
  <path id="7" class="fil7" d="M1289 1690c0,7 -3,11 -10,11 -3,0 -5,-1 -7,-2 -1,-2 -2,-4 -3,-5 -5,-6 -11,-9 -19,-8 -12,0 -19,8 -18,23 0,5 2,9 4,13 2,3 6,6 11,10 12,8 20,14 23,17 6,7 9,14 10,23 0,12 -3,22 -10,29 -8,8 -17,12 -29,13 -12,0 -22,-2 -30,-8 -7,-6 -11,-13 -11,-22 -1,-9 3,-13 11,-14 6,0 10,5 10,15 6,6 12,9 19,8 5,0 10,-2 13,-5 3,-4 5,-8 4,-13 0,-4 -2,-9 -6,-12 -1,-1 -6,-5 -17,-12 -16,-11 -24,-25 -24,-40 -1,-13 2,-24 10,-32 8,-8 18,-13 30,-13 11,-1 20,2 28,7 7,5 11,10 11,17z"/>
  <path id="8" class="fil7" d="M1486 1630c0,0 0,5 0,17 0,13 0,27 0,42 0,21 2,44 3,68 0,5 1,10 1,16 1,5 1,8 1,8 0,11 -3,16 -10,17 -7,0 -11,-6 -12,-18 0,-3 0,-5 0,-7 -13,15 -29,23 -47,24 -15,1 -27,-3 -37,-13 -9,-9 -14,-22 -16,-39 -1,-24 4,-43 16,-58 12,-15 28,-23 49,-25 10,0 20,1 31,5 -1,-20 -1,-32 -1,-36 1,-8 5,-12 12,-12 6,-1 9,3 10,11zm-21 58c-10,-5 -20,-7 -29,-7 -15,1 -27,7 -35,18 -8,11 -11,25 -10,42 1,12 4,22 11,28 6,6 14,9 24,8 13,0 23,-5 29,-14 1,-3 3,-6 5,-9 2,-3 4,-5 7,-6 -1,-21 -2,-40 -2,-60z"/>
  <path id="9" class="fil7" d="M1615 1722c2,20 0,41 -5,64 -2,11 -6,17 -12,17 -6,0 -9,-3 -9,-10 0,-1 0,-2 0,-3 -7,4 -15,7 -23,7 -14,1 -25,-2 -34,-10 -8,-7 -13,-18 -13,-32 -1,-15 2,-26 10,-35 8,-9 19,-14 33,-15 13,-1 23,2 32,10 -3,-29 -14,-42 -34,-41 -5,0 -9,2 -14,5 -5,3 -8,4 -10,4 -2,1 -5,0 -7,-2 -2,-2 -3,-5 -3,-7 0,-5 2,-9 9,-13 6,-4 14,-7 23,-7 35,-3 54,20 57,68zm-20 27c-1,-18 -11,-27 -28,-26 -19,1 -28,11 -27,29 1,19 11,28 30,26 8,0 14,-3 19,-8 4,-5 6,-12 6,-21z"/>
  <path id="10" class="fil7" d="M1837 1620c0,4 0,7 -3,10 -2,2 -4,4 -8,4 0,0 -2,-1 -4,-1 -4,-1 -7,-2 -11,-2 7,27 11,49 12,68 2,33 -4,59 -16,77 -11,18 -29,27 -53,28 -17,1 -29,-4 -39,-14 -9,-10 -14,-24 -15,-43 -1,-14 3,-20 11,-21 4,0 7,1 9,4 1,3 2,7 3,14 0,1 0,2 0,3 0,1 0,2 0,3 1,22 11,33 31,32 16,0 28,-7 36,-21 8,-13 11,-33 10,-57 -1,-25 -5,-50 -13,-75 -9,-2 -17,-3 -24,-2 -5,0 -12,1 -19,3 -8,2 -12,4 -15,4 -6,0 -10,-4 -11,-12 0,-4 4,-8 13,-11 9,-4 21,-6 36,-6 20,-1 40,1 58,5 8,2 12,5 12,10z"/>
  <path id="11" class="fil7" d="M1957 1680c1,8 -2,14 -7,17 -2,2 -9,4 -22,7 -16,4 -30,7 -42,7 -5,0 -12,0 -19,-1 0,28 11,42 32,41 6,0 11,-2 16,-5 2,-2 6,-6 12,-13 2,-2 4,-3 7,-3 3,0 6,1 8,3 2,2 3,5 4,8 0,3 -1,6 -3,8 -12,14 -27,21 -44,22 -35,1 -53,-18 -54,-59 -1,-21 4,-39 15,-54 12,-18 27,-27 46,-28 14,0 26,4 36,14 10,9 15,21 15,36zm-21 2c-1,-10 -4,-18 -9,-23 -5,-6 -11,-9 -19,-9 -9,1 -17,4 -24,11 -8,7 -13,17 -16,30 5,0 11,0 16,0 15,-1 32,-3 52,-9z"/>
  <path id="12" class="fil7" d="M2062 1655c0,7 -3,11 -11,11 -2,0 -4,-1 -6,-3 -1,-2 -2,-3 -3,-5 -5,-6 -11,-9 -18,-9 -13,0 -20,8 -19,22 0,5 1,10 3,13 2,4 6,7 11,11 11,9 19,15 21,18 6,7 9,15 10,24 0,12 -4,21 -12,28 -7,8 -17,12 -29,12 -12,0 -22,-3 -29,-9 -7,-6 -11,-14 -11,-22 0,-9 4,-14 12,-14 6,0 9,5 10,15 5,6 11,9 17,9 6,0 10,-1 14,-5 3,-3 5,-7 5,-12 0,-5 -2,-9 -6,-13 0,0 -6,-4 -17,-13 -14,-11 -22,-25 -22,-41 0,-13 4,-23 12,-31 8,-8 18,-12 31,-12 10,0 19,3 26,8 8,5 11,11 11,18z"/>
  <path id="13" class="fil7" d="M2169 1658c0,7 -4,11 -11,10 -3,0 -5,-1 -6,-3 -1,-1 -2,-3 -3,-5 -5,-6 -11,-9 -18,-9 -13,-1 -20,7 -20,21 0,5 1,10 3,13 2,4 5,7 10,11 11,10 18,16 21,19 6,7 8,15 8,24 0,12 -4,21 -12,28 -8,8 -18,11 -30,10 -12,0 -21,-3 -29,-10 -7,-6 -10,-13 -10,-22 1,-9 5,-13 12,-13 7,0 10,5 10,15 5,7 11,10 17,10 6,0 10,-1 14,-4 4,-3 5,-8 6,-13 0,-4 -2,-8 -6,-13 0,0 -6,-4 -16,-13 -14,-12 -21,-26 -21,-42 1,-13 5,-23 13,-30 8,-8 19,-12 31,-11 11,0 20,3 27,9 7,5 10,11 10,18z"/>
  <path class="fil8" d="M1015 1222c6,0 12,-12 12,-26 0,-15 -6,-26 -12,-26 -6,0 -11,11 -11,26 0,14 5,26 11,26zm82 -82c6,0 11,-12 11,-26 0,-14 -5,-26 -11,-26 -7,0 -12,12 -12,26 0,14 5,26 12,26zm493 69c6,0 12,-12 12,-26 0,-14 -6,-26 -12,-26 -6,0 -12,12 -12,26 0,14 6,26 12,26zm-374 -9c6,0 11,-12 11,-26 0,-14 -5,-26 -11,-26 -7,0 -12,12 -12,26 0,14 5,26 12,26zm-89 144c6,0 11,-12 11,-26 0,-14 -5,-26 -11,-26 -7,0 -12,12 -12,26 0,14 5,26 12,26zm184 -253c6,0 11,-12 11,-26 0,-14 -5,-26 -11,-26 -7,0 -12,12 -12,26 0,14 5,26 12,26zm60 146c7,0 12,-11 12,-25 0,-15 -5,-26 -12,-26 -6,0 -11,11 -11,26 0,14 5,25 11,25zm133 -106c6,0 11,-12 11,-26 0,-14 -5,-26 -11,-26 -7,0 -12,12 -12,26 0,14 5,26 12,26zm14 181c6,0 12,-11 12,-26 0,-14 -6,-25 -12,-25 -6,0 -11,11 -11,25 0,15 5,26 11,26z"/>
  <path class="fil8" style="mask:url(#id0)" d="M794 1205c11,-19 77,-14 64,47 -2,11 -23,1 -30,-19 -6,-19 -37,-9 -34,-25l0 -3z"/>
  <path class="fil9" d="M838 1079c31,-15 6,-62 -13,-45 -9,8 15,20 5,39 -2,4 2,9 8,6z"/>
  <path class="fil10" d="M892 1467c13,22 34,32 50,36 30,8 39,11 30,22 -16,19 -50,9 -67,0 -13,-7 -32,-38 -31,-51 1,-15 10,-19 18,-7z"/>
  <path class="fil10" d="M1071 1488c37,-19 58,14 68,-7 8,-17 -23,-33 -45,-32 -46,4 -55,55 -23,39z"/>
  <path class="fil11" d="M1340 1386c-15,31 26,7 47,3 18,-3 84,18 54,-12 -19,-19 -82,-29 -101,9z"/>
  <path class="fil9" d="M1633 1379c17,-19 39,-7 49,-2 4,2 5,-1 5,-1 6,-18 -21,-46 -41,-38 -25,11 -38,66 -13,41z"/>
  <path class="fil11" d="M1487 1471c12,13 30,20 39,15 29,-15 35,-8 31,2 -8,18 -35,25 -50,22 -11,-3 -35,-19 -37,-29 -3,-12 9,-19 17,-10z"/>
  <path class="fil12" d="M1792 1235c8,-11 22,-13 22,0 -2,63 -44,94 -45,85 -2,-10 -1,-48 23,-85z"/>
 </g>
</svg>
